<?xml version="1.0" encoding="utf-8"?>
<!-- Generator: Adobe Illustrator 19.0.0, SVG Export Plug-In . SVG Version: 6.00 Build 0)  -->
<svg version="1.1" id="Layer_1" xmlns="http://www.w3.org/2000/svg" xmlns:xlink="http://www.w3.org/1999/xlink" x="0px" y="0px"
	 viewBox="103.8 33.6 126.2 33.2" style="enable-background:new 103.8 33.6 126.2 33.2;" xml:space="preserve">
<style type="text/css">
	.st0{fill:#FFFFFF;}
</style>
<title>logo-5</title>
<path class="st0" d="M124.2,41.4h2v13.9h6v2h-8V41.4z M138.5,41.4c3.3,0,6,2.7,6,6s-2.7,6-6,6s-6-2.7-6-6S135.1,41.4,138.5,41.4z
	 M138.5,51.4c2.2,0,4-1.8,4-4s-1.8-4-4-4s-4,1.8-4,4C134.5,49.6,136.3,51.4,138.5,51.4L138.5,51.4z M134.5,55.3h8v2h-8V55.3z
	 M160.1,57.3h-2v-1.4c-1.3,0.9-2.8,1.4-4.4,1.4c-4.4,0-8-3.5-8.1-7.9c-0.1-4.4,3.5-8,7.9-8.1c2.3,0,4.6,1,6.1,2.8l-1.5,1.3
	c-2.2-2.5-6-2.7-8.5-0.5s-2.7,6-0.5,8.5c1.1,1.3,2.8,2,4.5,2c1.7,0,3.3-0.7,4.4-2h-5.4v-2h7.4L160.1,57.3z M167.4,41.4
	c3.3,0,6,2.7,6,6s-2.7,6-6,6s-6-2.7-6-6C161.4,44.1,164.1,41.4,167.4,41.4L167.4,41.4L167.4,41.4z M167.4,51.4c2.2,0,4-1.8,4-4
	s-1.8-4-4-4s-4,1.8-4,4C163.5,49.6,165.2,51.4,167.4,51.4L167.4,51.4z M163.4,55.4h8v2h-8C163.4,57.4,163.4,55.4,163.4,55.4z
	 M175.6,41.4h2v15.9h-2V41.4z M180.3,41.4h2c0.1,0,0.2,0,0.3,0c3.3-0.4,6.3,2,6.6,5.3c0.4,3.3-2,6.3-5.3,6.6c-0.4,0-0.9,0-1.3,0
	h-0.3v4h-2V41.4z M182.3,43.4v7.9h0.3c2.2,0.3,4.2-1.2,4.5-3.4s-1.2-4.2-3.4-4.5c-0.4,0-0.7,0-1.1,0
	C182.5,43.4,182.4,43.4,182.3,43.4L182.3,43.4z M196.7,42.5l-1.5,1.2c-0.7-0.8-2-0.8-2.7-0.1c-0.3,0.3-0.5,0.7-0.6,1.2V45
	c0,0.9,0.6,1.5,1.8,1.5c4.6,0.3,6.7,2.4,6.7,5.3V52c-0.3,3.2-3.2,5.6-6.5,5.3c-1.4-0.1-2.7-0.8-3.7-1.8l1.5-1.2
	c0.7,0.8,1.7,1.2,2.8,1.1c2,0.1,3.7-1.4,3.9-3.4v-0.1c0-2.7-2.6-3.2-4.9-3.4c-2.1-0.2-3.6-1.5-3.6-3.4V45c0.2-2,1.9-3.6,3.9-3.6
	C195,41.4,196,41.8,196.7,42.5L196.7,42.5z M208.2,55.3c2.5,0,4.5-2.7,4.5-6v-8h2v8c0,4.4-2.9,8-6.4,8s-6.4-3.5-6.4-8v-8h2v8
	C203.8,52.6,205.7,55.3,208.2,55.3L208.2,55.3z M230,57.3h-2v-9.9l-4.6,6l-4.6-6v9.9h-2V41.4l6.6,8.7l6.6-8.7V57.3z"/>
<path class="st0" d="M114.6,39c0-3-2.4-5.4-5.4-5.4s-5.4,2.4-5.4,5.4v16.5l4.5,3.2v7.8h1.9v-7.8l4.5-3.2L114.6,39z M112.7,48.2
	l-2.6,2.6v-2.4l2.6-2.6V48.2z M105.7,45.8l2.6,2.6v2.4l-2.6-2.6V45.8z M112.7,43.1l-3.5,3.5l-3.5-3.6v-2.4l3.5,3.5l3.5-3.5V43.1z
	 M109.2,35.5c1.6,0,3,1.1,3.4,2.6l-3.4,3.4l-3.4-3.4C106.2,36.5,107.6,35.5,109.2,35.5L109.2,35.5z M105.7,54.5v-3.6l2.6,2.6v2.9
	L105.7,54.5z M110.2,56.3v-2.9l2.6-2.6v3.6L110.2,56.3z"/>
</svg>
